<svg id="レイヤー_1" data-name="レイヤー 1" xmlns="http://www.w3.org/2000/svg" xmlns:xlink="http://www.w3.org/1999/xlink" viewBox="0 0 1024 1024"><defs><style>.cls-1{fill:url(#名称未設定グラデーション_27);}.cls-2{fill:#fff;}.cls-3{fill:none;}.cls-4{fill:#9f5891;}</style><linearGradient id="名称未設定グラデーション_27" x1="839.48" y1="1079.22" x2="187.29" y2="-50.41" gradientUnits="userSpaceOnUse"><stop offset="0" stop-color="#600a60" stop-opacity="0.8"/><stop offset="0.26" stop-color="#670f63" stop-opacity="0.79"/><stop offset="0.48" stop-color="#7c1e6e" stop-opacity="0.76"/><stop offset="0.68" stop-color="#a0387f" stop-opacity="0.72"/><stop offset="0.87" stop-color="#d35c97" stop-opacity="0.66"/><stop offset="1" stop-color="#ff7bac" stop-opacity="0.6"/></linearGradient></defs><rect class="cls-1" x="0.5" y="0.5" width="1023" height="1023"/><path d="M1023,1V1023H1V1H1023m1-1H0V1024H1024V0Z"/><rect class="cls-2" x="388.08" y="242.91" width="345.6" height="460.8"/><path class="cls-2" d="M306.84,742.11c0-38.4,17.64-38.4,34-38.4h8.81V242.91h-38.4a38.35,38.35,0,0,0-38.39,38.4v460.8a38.35,38.35,0,0,0,38.39,38.4h422.4v-38.4Zm0,0"/><rect class="cls-3" x="272.96" y="242.85" width="461.16" height="538.38"/><path class="cls-4" d="M506.86,536.45l-11.81,2.82.67-29.37q0-87.18-15.86-121-16.77-35.66-41.06-35.66-21.94,0-38.81,28l-5.74-3q25-38.82,54.56-38.82,70.65,0,70.65,162.12l30.87-46c6.31-7.91,21.17-28.2,40.32-37.44,41.76-20.16,92.34-.31,92.16,1.44a21.37,21.37,0,0,1-2.88,1.44c-1.67.82-2.73,1.39-2.88,1.44-6.36,2.12-14.34,2-15.84,1.44-24.48-8.64-51.84-4.32-57.6-2.88-28.5,7.12-56.26,52.72-59,57.6"/><path class="cls-4" d="M621.05,542.15q-14.74,0-24.58-11.53t-9.85-28.75q0-32.4,24.53-59.9t53.43-27.51q15.64,0,25.77,11.25t10.12,28.69q0,33.63-24.52,60.69T621.05,542.15Zm12.82-9.79q16.65,0,29.31-21.43t12.65-49.78q0-37.25-22.72-37.24-16.1,0-29,22.11T611.26,495.8Q611.26,532.35,633.87,532.36Z"/><path class="cls-4" d="M638.62,420.42a267.59,267.59,0,0,1,48.51-15.31q8.14-1.74,15.84-2.88l14.4,15.84a268,268,0,0,0-67.25,5.84Z"/></svg>